<svg width="672" height="936" viewBox="0 0 672 936" fill="none" xmlns="http://www.w3.org/2000/svg">
<rect width="672" height="936" rx="30" fill="#05050F"/>
<path d="M336 19L335.75 19.0002L335.5 19C304.578 19.099 283.965 28.3583 277.5 33L270.5 25.5C258.167 30.6667 225 41 191 41C157 41 131.5 29 123 23C121.333 24.1667 117.1 27.4 113.5 31C109.9 34.6 107.667 39.1667 107 41C103 41 90.8 40.8 74 40C57.2 39.2 43 30 38 25.5C37.1667 26.6667 33.9 31.3 27.5 40.5C19.5 52 19 62 25 71C29.8 78.2 23 81 19 81.5C18.8333 83 19 87.7 21 94.5C22.2041 98.5941 24.677 103.377 27 107.299V778C27 796.554 34.2184 813.422 46 825.948V867H297.539C300.634 858.487 316.676 852 336 852C355.324 852 371.366 858.487 374.461 867H521.589C523.589 880.233 530 887 530 887H626C626 887 635 879 635 859C635 839 626 831 626 831V825.948C637.782 813.422 645 796.554 645 778V107.197C647.309 103.294 649.753 98.5587 650.948 94.5C652.951 87.7 653.118 83 652.951 81.5C648.945 81 642.136 78.2 646.943 71C652.951 62 652.45 52 644.439 40.5C638.03 31.3 634.759 26.6667 633.924 25.5C628.917 30 614.697 39.2 597.873 40C581.049 40.8 568.832 41 564.826 41C564.158 39.1667 561.922 34.6 558.317 31C554.711 27.4 550.472 24.1667 548.803 23C540.291 29 514.755 41 480.706 41C446.658 41 413.444 30.6667 401.093 25.5L394.083 33C387.609 28.3583 366.967 19.0988 336 19Z" fill="#1A1A27"/>
<path d="M365 872C365 880.284 352.016 887 336 887C319.984 887 307 880.284 307 872C307 863.716 319.984 857 336 857C352.016 857 365 863.716 365 872Z" fill="#1A1A27"/>
<path d="M49 47H622.496C622.496 47 633 52.5 633 72.5C633 92.5 622.496 98 622.496 98H49C49 98 38.5 92.5 38.5 72.5C38.5 52.5 49 47 49 47Z" fill="#E6E6FF" fill-opacity="0.1"/>
<path d="M49 529H622.496C622.496 529 633 534.5 633 554.5C633 574.5 622.496 580 622.496 580H49C49 580 38.5 574.5 38.5 554.5C38.5 534.5 49 529 49 529Z" fill="#E6E6FF" fill-opacity="0.1"/>
<path d="M56 108H616V519H56V108Z" fill="#E6E6FF" fill-opacity="0.1"/>
<path d="M56 857V590H616V831H530C530 831 521.648 839.816 521.035 857H379.987C376.574 853.009 371.936 850.117 367.768 848.193C359.122 844.202 347.88 842 336 842C324.12 842 312.878 844.202 304.232 848.193C300.064 850.117 295.426 853.009 292.013 857H56Z" fill="#E6E6FF" fill-opacity="0.1"/>
<path d="M535.228 841C534.996 841.423 534.757 841.886 534.515 842.39C532.832 845.896 531 851.425 531 859C531 866.575 532.832 872.104 534.515 875.61C534.663 875.918 534.81 876.211 534.955 876.488C535.047 876.665 535.138 876.836 535.228 877H621.04C621.208 876.702 621.381 876.378 621.556 876.028C623.116 872.907 625 867.438 625 859C625 850.562 623.116 845.093 621.556 841.972C621.478 841.816 621.4 841.665 621.323 841.52C621.228 841.338 621.133 841.165 621.04 841H535.228Z" fill="#E6E6FF" fill-opacity="0.1"/>
</svg>
